<?xml version="1.0" encoding="UTF-8" standalone="no"?>
<!-- Created with Inkscape (http://www.inkscape.org/) -->
<svg
   xmlns:dc="http://purl.org/dc/elements/1.1/"
   xmlns:cc="http://web.resource.org/cc/"
   xmlns:rdf="http://www.w3.org/1999/02/22-rdf-syntax-ns#"
   xmlns:svg="http://www.w3.org/2000/svg"
   xmlns="http://www.w3.org/2000/svg"
   xmlns:sodipodi="http://sodipodi.sourceforge.net/DTD/sodipodi-0.dtd"
   xmlns:inkscape="http://www.inkscape.org/namespaces/inkscape"
   width="390.86749"
   height="500"
   id="svg2"
   sodipodi:version="0.32"
   inkscape:version="0.45"
   version="1.0"
   sodipodi:docname="WMATA_Metro_Logo.svg"
   inkscape:output_extension="org.inkscape.output.svg.inkscape"
   sodipodi:docbase="\\Storage\dpz\Profile\Desktop"
   sodipodi:modified="true">
  <defs
     id="defs4" />
  <sodipodi:namedview
     id="base"
     pagecolor="#ffffff"
     bordercolor="#666666"
     borderopacity="1.0"
     gridtolerance="10000"
     guidetolerance="10"
     objecttolerance="10"
     inkscape:pageopacity="0.0"
     inkscape:pageshadow="2"
     inkscape:zoom="0.76209504"
     inkscape:cx="372.04724"
     inkscape:cy="377.11832"
     inkscape:document-units="px"
     inkscape:current-layer="layer1"
     showguides="true"
     inkscape:guide-bbox="true"
     inkscape:window-width="1680"
     inkscape:window-height="1003"
     inkscape:window-x="-4"
     inkscape:window-y="-4" />
  <metadata
     id="metadata7">
    <rdf:RDF>
      <cc:Work
         rdf:about="">
        <dc:format>image/svg+xml</dc:format>
        <dc:type
           rdf:resource="http://purl.org/dc/dcmitype/StillImage" />
      </cc:Work>
    </rdf:RDF>
  </metadata>
  <g
     inkscape:label="Layer 1"
     inkscape:groupmode="layer"
     id="layer1"
     transform="translate(-199.53639,-227.97119)">
    <path
       style="fill:#000000;fill-opacity:1;fill-rule:evenodd;stroke:none;stroke-width:5;stroke-linecap:square;stroke-linejoin:miter;stroke-miterlimit:4;stroke-dashoffset:0;stroke-opacity:1"
       d="M 216.52957,227.97119 L 573.41069,227.97119 C 582.82491,227.97119 590.40387,235.55013 590.40387,244.96437 L 590.40387,710.97802 C 590.40387,720.39223 582.82491,727.97119 573.41069,727.97119 L 216.52957,727.97119 C 207.11535,727.97119 199.53639,720.39223 199.53639,710.97802 L 199.53639,244.96437 C 199.53639,235.55013 207.11535,227.97119 216.52957,227.97119 z "
       id="path2182" />
    <path
       style="fill:#ffffff;fill-opacity:1;fill-rule:evenodd;stroke:none;stroke-width:5;stroke-linecap:square;stroke-linejoin:miter;stroke-miterlimit:4;stroke-dashoffset:0;stroke-opacity:1"
       d="M 32.46875 30.03125 L 32.46875 193.5 L 32.46875 356.96875 L 65.0625 356.96875 L 97.65625 356.96875 L 97.71875 243.375 L 97.8125 129.8125 L 128.6875 237.6875 C 145.67872 297.01523 160.3385 348.11461 161.25 351.25 L 162.90625 356.96875 L 195.4375 356.96875 L 227.96875 356.96875 L 229.625 351.25 C 230.53649 348.1146 245.19625 297.01524 262.1875 237.6875 L 293.0625 129.8125 L 293.125 243.375 L 293.21875 356.96875 L 325.8125 356.96875 L 358.40625 356.96875 L 358.40625 193.5 L 358.40625 30.03125 L 309.5 30.03125 L 260.625 30.0625 L 228.125 138.59375 C 210.25736 198.29687 195.59983 247.24105 195.53125 247.34375 C 195.46264 247.44651 180.72711 198.58623 162.8125 138.78125 L 130.25 30.0625 L 81.375 30.03125 L 32.46875 30.03125 z M 214.125 373 L 214.125 382.1875 L 214.125 391.375 L 208.84375 391.375 L 203.53125 391.375 L 203.53125 397.03125 L 203.53125 402.6875 L 208.8125 402.6875 L 214.09375 402.6875 L 214.28125 424.1875 C 214.47715 444.63691 214.55188 445.80165 215.9375 447.65625 C 218.27078 450.77926 220.88022 452.34276 225.25 453.28125 C 229.7871 454.25566 236.42221 454.48132 240.46875 453.8125 L 243.125 453.375 L 243.125 447.125 L 243.125 440.84375 L 238.59375 440.84375 C 235.20175 440.84375 233.65956 440.5142 232.40625 439.5 C 230.74481 438.15557 230.76133 438.0635 230.53125 420.40625 L 230.28125 402.6875 L 236.6875 402.6875 L 243.125 402.6875 L 243.125 397.03125 L 243.125 391.375 L 236.75 391.375 L 230.40625 391.375 L 230.40625 382.1875 L 230.40625 373 L 222.28125 373 L 214.125 373 z M 326.28125 389.96875 C 314.8427 389.96526 304.07561 395.30931 299.09375 404.65625 C 292.03747 417.89513 293.5474 435.11634 302.6875 445.5 C 305.72112 448.94646 313.59019 453.2185 318.75 454.21875 C 323.22308 455.08585 329.22277 455.1091 333.6875 454.28125 C 339.38612 453.22459 347.18991 449.11844 350.375 445.5 C 359.51502 435.11635 361.02502 417.89512 353.96875 404.65625 C 351.25159 399.55839 347.47421 396.0557 341.8125 393.40625 C 336.81633 391.06827 331.48059 389.97034 326.28125 389.96875 z M 168.96875 390.0625 C 151.01936 390.31893 137.8125 403.87176 137.8125 422.8125 C 137.8125 438.44412 146.16733 449.86575 160.59375 453.9375 C 165.83275 455.4162 176.45189 454.88311 181.78125 452.875 C 187.0084 450.90541 192.75519 445.693 195.65625 440.25 C 196.88763 437.93969 197.875 435.71281 197.875 435.28125 C 197.875 434.75999 195.57875 434.46874 191 434.46875 L 184.09375 434.46875 L 182.1875 436.875 C 179.40468 440.36268 175.02056 442.25 169.71875 442.25 C 167.30203 442.25 164.28835 441.83774 163.03125 441.3125 C 158.61423 439.46694 154.79395 433.40365 154.78125 428.28125 L 154.75 426.71875 L 177.03125 426.71875 L 199.28125 426.71875 L 199.28125 422.5 C 199.28125 405.01698 188.11656 391.48625 172.625 390.1875 C 171.3888 390.08386 170.16538 390.0454 168.96875 390.0625 z M 68.375 390.09375 C 62.0744 390.01098 55.547074 392.30952 51.28125 397.03125 C 49.88677 398.57477 48.5704 399.84374 48.375 399.84375 C 48.1796 399.84375 48.031251 397.92638 48.03125 395.59375 L 48.03125 391.375 L 40.25 391.375 L 32.46875 391.375 L 32.46875 422.46875 L 32.46875 453.5625 L 40.96875 453.5625 L 49.4375 453.5625 L 49.4375 433.21875 C 49.4375 413.50947 49.490789 412.76467 51.03125 409.75 C 53.66031 404.60478 58.08864 402.41814 63.78125 403.4375 C 67.12969 404.03708 69.740559 406.39122 70.65625 409.6875 C 71.04673 411.09324 71.341553 421.40236 71.34375 432.90625 L 71.34375 453.5625 L 79.78125 453.5625 L 88.25 453.5625 L 88.46875 432.1875 C 88.66997 412.17025 88.746893 410.63635 90.09375 408.34375 C 90.88507 406.9968 92.599348 405.30753 93.875 404.5625 C 97.0174 402.72722 103.37798 402.75486 105.90625 404.625 C 109.70596 407.43555 109.86204 408.35363 110.09375 431.84375 L 110.3125 453.5625 L 118.8125 453.5625 L 127.28125 453.5625 L 127.0625 429.34375 C 126.84231 405.78917 126.81185 405.0512 125.21875 401.53125 C 123.19327 397.05593 120.13651 394.02749 115.53125 391.9375 C 112.66907 390.63864 110.71931 390.33088 105.28125 390.3125 C 97.4523 390.286 94.398069 391.51585 88.96875 396.78125 L 85.71875 399.90625 L 84.03125 397.46875 C 80.727725 392.64757 74.6756 390.17652 68.375 390.09375 z M 290.84375 390.3125 L 286.59375 390.375 C 280.11949 390.47321 274.43635 393.68013 270.1875 399.65625 L 267.84375 402.9375 L 267.84375 397.15625 L 267.84375 391.375 L 259.71875 391.375 L 251.59375 391.375 L 251.59375 422.46875 L 251.59375 453.5625 L 260.09375 453.5625 L 268.5625 453.5625 L 268.5625 437.6875 C 268.5625 419.81191 269.12124 415.92238 272.34375 411.65625 C 275.60603 407.33753 279.02679 405.84376 285.71875 405.84375 L 291.21875 405.84375 L 291.03125 398.09375 L 290.84375 390.3125 z M 327.375 402.65625 C 329.05863 402.68506 330.6765 402.94926 331.96875 403.4375 C 338.94435 406.07304 342.88222 416.07221 341.3125 427.15625 C 340.25446 434.62761 337.36187 439.17363 332.375 441.28125 C 326.49782 443.76517 318.24585 441.61763 315.0625 436.75 C 312.82828 433.33364 312.47592 432.31543 311.71875 426.96875 C 310.30783 417.00577 313.59109 407.38945 319.46875 404.28125 C 321.55742 403.17672 324.56895 402.60823 327.375 402.65625 z M 168.71875 402.6875 C 172.9302 402.6875 175.64524 403.56026 178 405.71875 C 179.97786 407.53175 182.29038 412.23393 182.3125 414.5 L 182.34375 416.09375 L 168.4375 416.09375 L 154.5625 416.09375 L 155 413.53125 C 156.02087 407.24039 161.7852 402.68751 168.71875 402.6875 z "
       transform="translate(199.53639,227.97119)"
       id="path2180" />
  </g>
</svg>
